<svg width="80" height="80" viewBox="0 0 80 80" fill="none" xmlns="http://www.w3.org/2000/svg">
<path d="M10 20C10 23.5733 13.8133 26.8733 20 28.66C26.1867 30.4467 33.8133 30.4467 40 28.66C46.1867 26.8733 50 23.5733 50 20M10 20C10 16.4267 13.8133 13.1267 20 11.34C26.1867 9.55333 33.8133 9.55333 40 11.34C46.1867 13.1267 50 16.4267 50 20M10 20V53.3333C10 56.2933 12.5733 58.1667 16.6667 60C20.76 61.8333 24.5 62 24.5 62M50 20V30.5M10 36.6667C10 39.6267 12.5733 41.5 16.6667 43.3333C20.76 45.1667 24.5 45 24.5 45" stroke="#1772DE" stroke-width="2" stroke-linecap="round" stroke-linejoin="round"/>
<path d="M30 46.6667C30 52.1901 38.9533 56.6667 50 56.6667C61.0467 56.6667 70 52.1901 70 46.6667M30 46.6667C30 41.1434 38.9533 36.6667 50 36.6667C61.0467 36.6667 70 41.1434 70 46.6667M30 46.6667V60.0001C30 65.5201 38.9533 70.0001 50 70.0001C61.0467 70.0001 70 65.5201 70 60.0001V46.6667" stroke="#19B4A1" stroke-width="2" stroke-linecap="round" stroke-linejoin="round"/>
</svg>
