<svg width="72" height="72" viewBox="0 0 72 72" fill="none" xmlns="http://www.w3.org/2000/svg">
<rect width="72" height="72" rx="8" fill="#195CB4"/>
<path d="M30.9998 34.3335C30.9998 35.6596 31.5266 36.9313 32.4643 37.869C33.402 38.8067 34.6738 39.3335 35.9998 39.3335C37.3259 39.3335 38.5977 38.8067 39.5354 37.869C40.4731 36.9313 40.9998 35.6596 40.9998 34.3335C40.9998 33.0074 40.4731 31.7356 39.5354 30.798C38.5977 29.8603 37.3259 29.3335 35.9998 29.3335C34.6738 29.3335 33.402 29.8603 32.4643 30.798C31.5266 31.7356 30.9998 33.0074 30.9998 34.3335Z" stroke="white" stroke-width="2" stroke-linecap="round" stroke-linejoin="round"/>
<path d="M45.4282 43.7622L38.3565 50.8338C37.7315 51.4582 36.8841 51.8089 36.0007 51.8089C35.1172 51.8089 34.2699 51.4582 33.6448 50.8338L26.5715 43.7622C24.7069 41.8974 23.4371 39.5217 22.9227 36.9353C22.4082 34.3489 22.6723 31.668 23.6815 29.2317C24.6907 26.7954 26.3997 24.7131 28.5923 23.248C30.785 21.7829 33.3628 21.001 35.9998 21.001C38.6369 21.001 41.2147 21.7829 43.4074 23.248C45.6 24.7131 47.309 26.7954 48.3182 29.2317C49.3274 31.668 49.5914 34.3489 49.077 36.9353C48.5626 39.5217 47.2928 41.8974 45.4282 43.7622Z" stroke="white" stroke-width="2" stroke-linecap="round" stroke-linejoin="round"/>
</svg>
