<svg width="80" height="80" viewBox="0 0 80 80" fill="none" xmlns="http://www.w3.org/2000/svg">
<path d="M14 45.5554C14 43.4042 14.7827 41.3412 16.1758 39.82C17.5689 38.2989 19.4584 37.4443 21.4286 37.4443H58.5714C60.5416 37.4443 62.4311 38.2989 63.8242 39.82C65.2173 41.3412 66 43.4042 66 45.5554V69.8888C66 72.04 65.2173 74.1031 63.8242 75.6242C62.4311 77.1453 60.5416 77.9999 58.5714 77.9999H21.4286C19.4584 77.9999 17.5689 77.1453 16.1758 75.6242C14.7827 74.1031 14 72.04 14 69.8888V45.5554Z" stroke="#1772DE" stroke-width="3" stroke-linecap="round" stroke-linejoin="round"/>
<path d="M25.1431 34.4444V18.2222C25.1431 13.9198 26.7084 9.79363 29.4946 6.75138C32.2809 3.70912 36.0599 2 40.0002 2C43.9406 2 47.7195 3.70912 50.5058 6.75138C53.292 9.79363 54.8574 13.9198 54.8574 18.2222V34.4444M36.2859 57.7222C36.2859 58.7978 36.6772 59.8294 37.3738 60.5899C38.0704 61.3505 39.0151 61.7778 40.0002 61.7778C40.9853 61.7778 41.93 61.3505 42.6266 60.5899C43.3232 59.8294 43.7145 58.7978 43.7145 57.7222C43.7145 56.6466 43.3232 55.6151 42.6266 54.8545C41.93 54.0939 40.9853 53.6667 40.0002 53.6667C39.0151 53.6667 38.0704 54.0939 37.3738 54.8545C36.6772 55.6151 36.2859 56.6466 36.2859 57.7222Z" stroke="#19B4A1" stroke-width="3" stroke-linecap="square" stroke-linejoin="round"/>
</svg>
