<svg width="72" height="72" viewBox="0 0 72 72" fill="none" xmlns="http://www.w3.org/2000/svg">
<rect width="72" height="72" rx="8" fill="#195CB4"/>
<path d="M21 27.6668C21 26.7828 21.3512 25.9349 21.9763 25.3098C22.6014 24.6847 23.4493 24.3335 24.3333 24.3335H47.6667C48.5507 24.3335 49.3986 24.6847 50.0237 25.3098C50.6488 25.9349 51 26.7828 51 27.6668M21 27.6668V44.3335C21 45.2176 21.3512 46.0654 21.9763 46.6905C22.6014 47.3156 23.4493 47.6668 24.3333 47.6668H47.6667C48.5507 47.6668 49.3986 47.3156 50.0237 46.6905C50.6488 46.0654 51 45.2176 51 44.3335V27.6668M21 27.6668L36 37.6668L51 27.6668" stroke="white" stroke-width="2" stroke-linecap="round" stroke-linejoin="round"/>
</svg>
