<svg width="72" height="72" viewBox="0 0 72 72" fill="none" xmlns="http://www.w3.org/2000/svg">
<circle cx="36" cy="36" r="36" fill="#FFD2A4"/>
<path d="M29.3333 32.6667V29.3333H32.6667M42.6667 39.3333V42.6667H39.3333M32.6667 42.6667H29.3333V39.3333M42.6667 32.6667V29.3333H39.3333M21 32.6667H24.3333M21 39.3333H24.3333M32.6667 21V24.3333M39.3333 21V24.3333M51 32.6667H47.6667M51 39.3333H47.6667M39.3333 51V47.6667M32.6667 51V47.6667M24.3333 26C24.3333 25.558 24.5089 25.134 24.8215 24.8215C25.134 24.5089 25.558 24.3333 26 24.3333H46C46.442 24.3333 46.866 24.5089 47.1785 24.8215C47.4911 25.134 47.6667 25.558 47.6667 26V46C47.6667 46.442 47.4911 46.866 47.1785 47.1785C46.866 47.4911 46.442 47.6667 46 47.6667H26C25.558 47.6667 25.134 47.4911 24.8215 47.1785C24.5089 46.866 24.3333 46.442 24.3333 46V26Z" stroke="#6B2E23" stroke-width="2" stroke-linecap="round" stroke-linejoin="round"/>
</svg>
