<svg width="72" height="72" viewBox="0 0 72 72" fill="none" xmlns="http://www.w3.org/2000/svg">
<circle cx="36" cy="36" r="36" fill="#CAB8FF"/>
<g clip-path="url(#clip0_924_390)">
<path d="M51 31.8393C51 35.2574 51 38.6755 51 42.0935C50.9844 42.1381 50.9617 42.1818 50.9539 42.2279C50.7164 43.6725 49.8899 44.6483 48.5907 45.285C46.3962 46.3616 44.2322 47.5015 42.0245 48.5492C40.2128 49.4093 38.5386 50.5875 36.5269 51C36.1754 51 35.8238 51 35.4723 51C34.7715 50.868 34.1059 50.6453 33.4692 50.3133C32.4505 49.782 31.4154 49.282 30.3873 48.7679C28.0092 47.5788 25.6311 46.3882 23.2523 45.2006C22.1922 44.6717 21.4789 43.8529 21.1469 42.7115C21.0875 42.5084 21.0484 42.2998 21 42.0935C21 38.6755 21 35.2574 21 31.8393C21.018 31.8065 21.0438 31.7761 21.0516 31.7409C21.2258 30.9542 21.689 30.4002 22.407 30.0471C22.9398 29.7846 23.4671 29.5096 24.0046 29.2565C24.2132 29.158 24.2991 29.0416 24.2968 28.7971C24.2835 27.1486 24.2804 25.5001 24.2929 23.8516C24.3023 22.6227 24.8655 21.7305 25.9936 21.2203C26.2116 21.1219 26.4522 21.0719 26.6827 21C32.8934 21 39.1042 21 45.315 21C45.3306 21.0117 45.3447 21.0289 45.3619 21.0328C46.9274 21.4102 47.7079 22.3953 47.7087 23.9977C47.7095 25.5775 47.7149 27.158 47.7024 28.7377C47.7001 29.0041 47.7688 29.1533 48.0212 29.2682C48.5969 29.5307 49.1594 29.8229 49.7211 30.1159C50.3524 30.4456 50.7445 30.9714 50.9313 31.655C50.9492 31.7175 50.9773 31.7776 51 31.8393ZM49.2422 34.6121C49.1157 34.6707 49.0282 34.7082 48.943 34.7511C45.4009 36.5207 41.8588 38.2887 38.3183 40.0622C36.759 40.8427 35.2129 40.8302 33.6559 40.0482C30.1279 38.2762 26.5936 36.5152 23.0617 34.7504C22.9718 34.7058 22.8796 34.6675 22.7593 34.6129C22.7593 34.7402 22.7593 34.8175 22.7593 34.8949C22.7593 37.1215 22.7586 39.3474 22.7601 41.574C22.7609 42.5131 23.1828 43.1982 24.0218 43.6186C27.5444 45.3819 31.0677 47.1436 34.5918 48.9031C35.5059 49.3593 36.4441 49.3812 37.3558 48.9289C40.919 47.1608 44.4759 45.3795 48.0298 43.5936C48.8336 43.1896 49.2352 42.5084 49.2415 41.6068C49.2477 40.7185 49.243 39.8294 49.243 38.9411C49.2422 37.5153 49.2422 36.0902 49.2422 34.6121ZM36.0301 22.7571C33.1005 22.7571 30.1716 22.7571 27.242 22.7571C26.4249 22.7571 26.0491 23.1376 26.0491 23.9626C26.0491 27.3025 26.0522 30.6417 26.0421 33.9816C26.0413 34.2167 26.1241 34.3207 26.321 34.4191C29.0092 35.7559 31.6989 37.0895 34.3762 38.4497C35.4723 39.0067 36.5262 39.0083 37.6222 38.4528C40.3011 37.095 42.9916 35.759 45.6806 34.4222C45.8798 34.323 45.9595 34.2168 45.9587 33.9832C45.9494 30.6432 45.9525 27.3041 45.9525 23.9641C45.9525 23.1274 45.5767 22.7571 44.7306 22.7571C41.8299 22.7571 38.93 22.7571 36.0301 22.7571ZM24.2718 33.3941C24.2718 32.6019 24.2718 31.8604 24.2718 31.0831C23.914 31.2612 23.5851 31.4245 23.257 31.5886C23.1874 31.6229 23.1156 31.655 23.0507 31.6979C22.6914 31.9401 22.6398 32.4878 22.9937 32.7191C23.3882 32.9753 23.8257 33.1628 24.2718 33.3941ZM47.7212 33.3995C48.1696 33.1691 48.5868 32.9839 48.9727 32.748C49.3274 32.5308 49.3493 31.9753 49.0024 31.7495C48.6079 31.4932 48.1712 31.3034 47.7212 31.0682C47.7212 31.8612 47.7212 32.598 47.7212 33.3995Z" fill="#310E67"/>
<path d="M31.3702 26H28.5924C28.3469 26 28.1113 26.0878 27.9377 26.2441C27.7641 26.4004 27.6665 26.6123 27.6665 26.8333V28.5C27.6665 28.721 27.7641 28.933 27.9377 29.0893C28.1113 29.2455 28.3469 29.3333 28.5924 29.3333H30.4443C30.6899 29.3333 30.9254 29.4211 31.099 29.5774C31.2727 29.7337 31.3702 29.9457 31.3702 30.1667V31.8333C31.3702 32.0543 31.2727 32.2663 31.099 32.4226C30.9254 32.5789 30.6899 32.6667 30.4443 32.6667H27.6665M40.6295 26V32.6667M44.3332 26L41.5554 29.3333M41.5554 29.3333L44.3332 32.6667M41.5554 29.3333H40.6295M34.148 26V32.6667H35.9998C36.491 32.6667 36.962 32.4911 37.3093 32.1785C37.6566 31.866 37.8517 31.442 37.8517 31V27.6667C37.8517 27.2246 37.6566 26.8007 37.3093 26.4882C36.962 26.1756 36.491 26 35.9998 26H34.148Z" stroke="#310E67" stroke-width="1.6" stroke-linecap="round" stroke-linejoin="round"/>
</g>
<defs>
<clipPath id="clip0_924_390">
<rect width="40" height="40" fill="white" transform="translate(16 16)"/>
</clipPath>
</defs>
</svg>
