<svg width="72" height="72" viewBox="0 0 72 72" fill="none" xmlns="http://www.w3.org/2000/svg">
<circle cx="36" cy="36" r="36" fill="#BDF5D5"/>
<path d="M22.6665 24.3334C22.6665 23.8914 22.8421 23.4675 23.1547 23.1549C23.4672 22.8423 23.8911 22.6667 24.3332 22.6667H30.9998C31.4419 22.6667 31.8658 22.8423 32.1783 23.1549C32.4909 23.4675 32.6665 23.8914 32.6665 24.3334V31.0001C32.6665 31.4421 32.4909 31.866 32.1783 32.1786C31.8658 32.4912 31.4419 32.6667 30.9998 32.6667H24.3332C23.8911 32.6667 23.4672 32.4912 23.1547 32.1786C22.8421 31.866 22.6665 31.4421 22.6665 31.0001V24.3334Z" stroke="#062D19" stroke-width="2" stroke-linecap="round" stroke-linejoin="round"/>
<path d="M22.6665 41.0001C22.6665 40.5581 22.8421 40.1341 23.1547 39.8216C23.4672 39.509 23.8911 39.3334 24.3332 39.3334H30.9998C31.4419 39.3334 31.8658 39.509 32.1783 39.8216C32.4909 40.1341 32.6665 40.5581 32.6665 41.0001V47.6667C32.6665 48.1088 32.4909 48.5327 32.1783 48.8453C31.8658 49.1578 31.4419 49.3334 30.9998 49.3334H24.3332C23.8911 49.3334 23.4672 49.1578 23.1547 48.8453C22.8421 48.5327 22.6665 48.1088 22.6665 47.6667V41.0001Z" stroke="#062D19" stroke-width="2" stroke-linecap="round" stroke-linejoin="round"/>
<path d="M39.3332 41.0001C39.3332 40.5581 39.5088 40.1341 39.8213 39.8216C40.1339 39.509 40.5578 39.3334 40.9998 39.3334H47.6665C48.1085 39.3334 48.5325 39.509 48.845 39.8216C49.1576 40.1341 49.3332 40.5581 49.3332 41.0001V47.6667C49.3332 48.1088 49.1576 48.5327 48.845 48.8453C48.5325 49.1578 48.1085 49.3334 47.6665 49.3334H40.9998C40.5578 49.3334 40.1339 49.1578 39.8213 48.8453C39.5088 48.5327 39.3332 48.1088 39.3332 47.6667V41.0001Z" stroke="#062D19" stroke-width="2" stroke-linecap="round" stroke-linejoin="round"/>
<path d="M39.3332 24.3334C39.3332 23.8914 39.5088 23.4675 39.8213 23.1549C40.1339 22.8423 40.5578 22.6667 40.9998 22.6667H47.6665C48.1085 22.6667 48.5325 22.8423 48.845 23.1549C49.1576 23.4675 49.3332 23.8914 49.3332 24.3334V31.0001C49.3332 31.4421 49.1576 31.866 48.845 32.1786C48.5325 32.4912 48.1085 32.6667 47.6665 32.6667H40.9998C40.5578 32.6667 40.1339 32.4912 39.8213 32.1786C39.5088 31.866 39.3332 31.4421 39.3332 31.0001V24.3334Z" stroke="#062D19" stroke-width="2" stroke-linecap="round" stroke-linejoin="round"/>
</svg>
