<svg width="72" height="72" viewBox="0 0 72 72" fill="none" xmlns="http://www.w3.org/2000/svg">
<circle cx="36" cy="36" r="36" fill="#FBF48D"/>
<g clip-path="url(#clip0_924_358)">
<path d="M29.1981 53.0786C26.9627 51.8887 24.7273 50.6979 22.4918 49.5071C22.1777 49.3396 21.8609 49.1782 21.553 49.0009C20.9203 48.6354 20.8108 47.9188 21.327 47.3983C23.0596 45.6532 24.786 43.9009 26.5462 42.1833C27.7191 41.038 29.1661 40.4818 30.8 40.4658C32.8458 40.4453 34.8917 40.4533 36.9376 40.4622C38.931 40.4711 40.3112 42.1717 39.9081 44.1273C39.8494 44.4134 39.9215 44.4535 40.1546 44.359C40.4314 44.2467 40.717 44.146 40.9751 43.998C42.8074 42.949 44.6308 41.8821 46.4631 40.8339C48.242 39.816 50.3858 40.6966 50.8993 42.6441C51.2499 43.9739 50.6679 45.302 49.398 46.0409C47.7748 46.9856 46.1463 47.9215 44.5196 48.8618C44.0097 49.1569 43.4971 49.4474 42.9898 49.7469C42.1542 50.2389 41.2501 50.4617 40.2845 50.4608C37.9272 50.459 35.5698 50.4671 33.2125 50.4555C32.6412 50.4528 32.1766 50.64 31.7833 51.0482C31.3579 51.4885 30.929 51.9261 30.484 52.3459C30.2055 52.608 29.894 52.8352 29.5968 53.0786C29.4651 53.0786 29.3316 53.0786 29.1981 53.0786ZM36.749 48.4795C37.9272 48.4795 39.1054 48.4697 40.2836 48.483C40.9377 48.4911 41.5295 48.3217 42.0901 47.9937C43.4045 47.2263 44.7243 46.4687 46.0422 45.7066C46.8689 45.228 47.6983 44.7538 48.5197 44.2654C48.9121 44.0319 49.083 43.6656 49.0082 43.2155C48.9379 42.7939 48.671 42.5211 48.2598 42.4053C47.9243 42.3108 47.6298 42.432 47.3424 42.5987C45.5652 43.6308 43.7818 44.6531 42.0074 45.6897C41.162 46.1835 40.2596 46.4491 39.2816 46.45C37.4591 46.4518 35.6357 46.4518 33.8132 46.45C33.1386 46.4491 32.6732 46.032 32.6812 45.4473C32.6892 44.8715 33.1449 44.4713 33.8025 44.4695C34.825 44.4677 35.8475 44.4704 36.87 44.4686C37.5641 44.4677 38.0197 44.0577 38.0153 43.4454C38.0108 42.8465 37.5588 42.4427 36.886 42.4418C34.8739 42.4409 32.8627 42.44 30.8507 42.4418C29.6965 42.4427 28.6891 42.8384 27.8686 43.6433C26.5106 44.9749 25.1784 46.3332 23.8285 47.6728C23.6496 47.8502 23.6923 47.9162 23.8908 48.0222C25.5869 48.9251 27.2804 49.8334 28.9703 50.7478C29.1385 50.8387 29.2417 50.82 29.3708 50.6845C29.708 50.3298 30.064 49.9929 30.4048 49.6426C31.1755 48.8502 32.1135 48.4723 33.2143 48.4777C34.3925 48.483 35.5707 48.4795 36.749 48.4795Z" fill="#381610"/>
<path d="M38.2051 18.8655C38.7987 19.1008 39.0657 19.5402 38.9909 20.173C38.9535 20.485 39.2036 20.4841 39.3771 20.5768C39.5391 20.6632 39.6833 20.6953 39.8096 20.5171C39.8604 20.4458 39.9324 20.3878 39.9965 20.3272C40.4379 19.9092 40.995 19.8887 41.4257 20.3121C42.3699 21.2399 43.306 22.1758 44.2315 23.1223C44.6801 23.5804 44.6418 24.1375 44.1479 24.6224C43.9601 24.806 43.8551 24.9468 43.9806 25.2409C44.0963 25.5137 44.2431 25.5672 44.5039 25.5636C45.2843 25.5538 45.6661 25.946 45.667 26.7321C45.6678 27.946 45.6678 29.1591 45.667 30.373C45.6661 31.1592 45.2834 31.5611 44.5074 31.5415C44.2146 31.5344 44.0927 31.636 43.9717 31.8963C43.8444 32.1699 43.9583 32.2947 44.1239 32.4596C44.6845 33.0184 44.6818 33.5407 44.1194 34.1058C43.2642 34.9659 42.4073 35.8233 41.5494 36.6808C40.9861 37.2432 40.4628 37.2458 39.9048 36.6888C39.7562 36.5408 39.6459 36.3875 39.3745 36.5212C39.1217 36.646 38.9722 36.7405 38.9847 37.0685C39.0141 37.8475 38.6074 38.2307 37.8225 38.2316C36.6104 38.2325 35.3993 38.2325 34.1872 38.2316C33.4023 38.2307 32.9956 37.8475 33.025 37.0685C33.0375 36.7414 32.8889 36.6442 32.637 36.5177C32.3638 36.3804 32.2544 36.5426 32.1066 36.6888C31.546 37.2449 31.0227 37.2423 30.4621 36.6817C29.6051 35.8242 28.7464 34.9668 27.8921 34.1067C27.327 33.5371 27.3234 33.0211 27.8849 32.4622C28.0505 32.2974 28.1653 32.1726 28.038 31.8989C27.917 31.6387 27.7959 31.5362 27.5032 31.5433C26.7254 31.562 26.3427 31.1618 26.3418 30.3757C26.341 29.1618 26.3401 27.9487 26.3418 26.7348C26.3427 25.9477 26.7245 25.5484 27.5032 25.568C27.7959 25.5752 27.917 25.4718 28.038 25.2115C28.1653 24.9379 28.0505 24.8131 27.8849 24.6482C27.3234 24.0894 27.327 23.5724 27.8921 23.0038C28.7544 22.1357 29.6194 21.2702 30.4861 20.4056C31.0174 19.8753 31.5522 19.8744 32.0835 20.3976C32.3754 20.6855 32.5676 20.7087 32.904 20.4591C32.9725 20.4083 33.0161 20.2693 33.0081 20.1757C32.9565 19.5411 33.2092 19.1026 33.8028 18.8664C35.2693 18.8655 36.7377 18.8655 38.2051 18.8655ZM35.9937 36.2512C36.2491 36.2512 36.5054 36.244 36.7608 36.2538C36.9335 36.2601 37.0118 36.2244 37.0225 36.0212C37.0527 35.4356 37.2921 35.1736 37.8367 34.9802C38.3164 34.8099 38.788 34.6129 39.249 34.3964C39.7829 34.1459 40.114 34.1655 40.5571 34.5639C40.6853 34.6789 40.7592 34.6887 40.8802 34.563C41.2433 34.1869 41.6117 33.8161 41.989 33.4534C42.1225 33.325 42.1251 33.2466 41.9952 33.1049C41.609 32.6833 41.5885 32.3392 41.8261 31.8232C42.0486 31.3401 42.248 30.8454 42.4331 30.3463C42.619 29.8454 42.9011 29.6012 43.4378 29.5735C43.6149 29.5646 43.6958 29.5308 43.6914 29.3329C43.6798 28.8097 43.6816 28.2865 43.6905 27.7633C43.6932 27.5859 43.6264 27.5458 43.4582 27.5351C42.8745 27.4986 42.6128 27.266 42.4188 26.7178C42.256 26.2579 42.0851 25.7971 41.8644 25.3639C41.601 24.8461 41.5939 24.3942 42.0166 23.961C42.062 23.9147 42.062 23.7498 42.0175 23.7026C41.6428 23.3068 41.2504 22.928 40.8695 22.5376C40.7627 22.428 40.6933 22.4244 40.5705 22.5305C40.0802 22.9565 39.7883 22.9681 39.2072 22.6909C38.7578 22.477 38.2923 22.2925 37.8234 22.1258C37.3001 21.9396 37.0483 21.657 37.0198 21.1089C37.0109 20.9315 36.978 20.8504 36.7795 20.8549C36.2571 20.8664 35.7348 20.8647 35.2124 20.8557C35.0353 20.8531 34.9953 20.9199 34.9846 21.0875C34.9481 21.6731 34.7203 21.9298 34.1694 22.1294C33.6907 22.3023 33.2181 22.4984 32.7572 22.7123C32.2188 22.9628 31.8931 22.9432 31.4499 22.5439C31.3209 22.428 31.2461 22.4227 31.1269 22.5456C30.7638 22.9218 30.3954 23.2926 30.018 23.6553C29.8845 23.7837 29.8828 23.8621 30.0118 24.0029C30.3945 24.4192 30.4158 24.7712 30.1791 25.2855C29.9575 25.7686 29.7573 26.2633 29.5731 26.7624C29.388 27.2633 29.1068 27.5057 28.5666 27.5334C28.3886 27.5423 28.3094 27.5779 28.3139 27.7758C28.3254 28.299 28.3237 28.8222 28.3148 29.3454C28.3112 29.5245 28.3815 29.562 28.5479 29.5718C29.1317 29.6074 29.3898 29.8391 29.5873 30.3891C29.7591 30.8686 29.9549 31.3419 30.1702 31.8036C30.4203 32.3392 30.4034 32.6726 30.0011 33.1129C29.8587 33.2689 29.9104 33.3446 30.0287 33.4605C30.3865 33.8099 30.7451 34.1611 31.0877 34.5256C31.2354 34.6825 31.3271 34.686 31.4837 34.5301C31.8308 34.1833 32.2348 34.1584 32.6788 34.358C33.2048 34.5933 33.7378 34.8117 34.2762 35.0176C34.6251 35.1513 34.8609 35.3723 34.9516 35.7369C34.9926 35.9027 34.9721 36.1549 35.0718 36.2173C35.2097 36.3028 35.4366 36.2467 35.6253 36.2494C35.7499 36.252 35.8718 36.2512 35.9937 36.2512Z" fill="#381610"/>
<path d="M36.0148 24.2244C38.3891 24.2297 40.3371 26.195 40.3282 28.5748C40.3193 30.951 38.3517 32.9012 35.9765 32.8878C33.6192 32.8744 31.6783 30.9171 31.6792 28.5534C31.6801 26.1763 33.6414 24.2181 36.0148 24.2244ZM36.0041 26.2057C34.7022 26.2057 33.6548 27.2566 33.6575 28.5623C33.6592 29.8503 34.7031 30.8993 35.9863 30.9047C37.2918 30.91 38.3472 29.8654 38.3499 28.5641C38.3517 27.2575 37.3069 26.2057 36.0041 26.2057Z" fill="#381610"/>
</g>
<defs>
<clipPath id="clip0_924_358">
<rect width="40" height="40" fill="white" transform="translate(16 16)"/>
</clipPath>
</defs>
</svg>
