<svg width="20" height="20" viewBox="0 0 20 20" fill="none" xmlns="http://www.w3.org/2000/svg">
<path d="M6.7002 8.6998L13.3002 5.2998M6.7002 11.2998L13.3002 14.6998M1 10C1 10.7956 1.31607 11.5587 1.87868 12.1213C2.44129 12.6839 3.20435 13 4 13C4.79565 13 5.55871 12.6839 6.12132 12.1213C6.68393 11.5587 7 10.7956 7 10C7 9.20435 6.68393 8.44129 6.12132 7.87868C5.55871 7.31607 4.79565 7 4 7C3.20435 7 2.44129 7.31607 1.87868 7.87868C1.31607 8.44129 1 9.20435 1 10ZM13 4C13 4.79565 13.3161 5.55871 13.8787 6.12132C14.4413 6.68393 15.2044 7 16 7C16.7956 7 17.5587 6.68393 18.1213 6.12132C18.6839 5.55871 19 4.79565 19 4C19 3.20435 18.6839 2.44129 18.1213 1.87868C17.5587 1.31607 16.7956 1 16 1C15.2044 1 14.4413 1.31607 13.8787 1.87868C13.3161 2.44129 13 3.20435 13 4ZM13 16C13 16.7956 13.3161 17.5587 13.8787 18.1213C14.4413 18.6839 15.2044 19 16 19C16.7956 19 17.5587 18.6839 18.1213 18.1213C18.6839 17.5587 19 16.7956 19 16C19 15.2044 18.6839 14.4413 18.1213 13.8787C17.5587 13.3161 16.7956 13 16 13C15.2044 13 14.4413 13.3161 13.8787 13.8787C13.3161 14.4413 13 15.2044 13 16Z" stroke="#6B7280" stroke-width="2" stroke-linecap="round" stroke-linejoin="round"/>
</svg>
